<?xml version="1.0" standalone="no"?>
<!DOCTYPE svg PUBLIC "-//W3C//DTD SVG 20010904//EN"
 "http://www.w3.org/TR/2001/REC-SVG-20010904/DTD/svg10.dtd">
<svg version="1.0" xmlns="http://www.w3.org/2000/svg"
 width="150.000000pt" height="150.000000pt" viewBox="0 0 150.000000 150.000000"
 preserveAspectRatio="xMidYMid meet">
<metadata>
Created by potrace 1.11, written by Peter Selinger 2001-2013
</metadata>
<g transform="translate(0.000000,150.000000) scale(0.100000,-0.100000)"
fill="#000000" stroke="none">
<path d="M676 1402 c-2 -4 11 -6 30 -4 21 3 34 0 34 -7 0 -6 -6 -11 -14 -11
-7 0 -25 -9 -39 -20 -14 -11 -36 -20 -50 -20 -28 0 -57 -28 -57 -56 0 -12 -16
-29 -40 -44 -34 -21 -40 -29 -35 -49 4 -15 0 -30 -11 -42 -14 -16 -15 -23 -4
-48 6 -16 8 -36 4 -43 -4 -7 -7 -42 -6 -78 l1 -65 -14 45 c-44 134 -40 252 9
326 39 59 69 81 132 99 27 7 42 14 34 14 -62 4 -148 -52 -185 -122 -26 -46
-28 -61 -28 -142 1 -49 7 -112 15 -138 10 -35 11 -75 6 -144 -8 -110 -14 -121
-100 -164 -31 -16 -81 -46 -112 -67 -59 -42 -87 -55 -152 -72 -32 -8 -47 -19
-68 -53 -18 -28 -20 -34 -6 -18 11 13 24 30 29 38 4 8 34 21 67 29 35 10 85
34 124 61 36 26 85 55 110 67 92 43 107 59 116 128 4 35 8 73 8 86 0 20 2 21
15 8 11 -12 12 -18 2 -30 -10 -11 -10 -19 0 -34 10 -17 10 -23 -5 -38 -14 -13
-17 -28 -13 -56 4 -31 1 -41 -16 -53 -12 -8 -34 -15 -48 -15 -17 0 -35 -9 -47
-25 -11 -13 -32 -29 -46 -35 -21 -8 -26 -15 -21 -30 5 -15 2 -20 -14 -20 -11
0 -29 -12 -40 -26 -17 -22 -22 -24 -27 -10 -5 14 -9 14 -37 -1 -18 -9 -40 -16
-49 -14 -9 1 -19 -7 -23 -19 -3 -11 -19 -27 -35 -35 -15 -8 -38 -27 -49 -41
-20 -25 -21 -39 -21 -220 l0 -194 66 0 c65 0 66 0 77 32 7 17 24 57 38 87 l26
56 15 -90 c9 -51 16 -75 17 -56 1 29 3 32 16 21 9 -7 13 -21 10 -31 -6 -18 8
-19 369 -19 l375 0 19 62 20 63 17 -63 c10 -34 20 -61 22 -58 3 2 -4 36 -15
75 l-20 70 25 -16 c18 -12 23 -23 20 -42 -3 -13 2 -40 11 -58 l16 -33 134 0
c124 0 134 1 127 17 -3 10 -17 58 -31 108 -13 50 -34 124 -45 165 -11 41 -35
109 -52 150 -36 83 -22 73 -191 135 -27 10 -89 44 -137 77 -97 65 -104 77 -70
132 40 64 66 222 62 375 -2 115 -15 151 -66 193 -54 44 -164 75 -179 50z
m-116 -543 c0 -22 4 -30 14 -26 20 8 56 -21 56 -45 0 -12 7 -30 17 -40 29 -32
5 -31 -39 1 -35 26 -47 43 -65 96 -21 63 -21 65 -2 55 12 -7 19 -21 19 -41z
m-310 -761 c0 -9 -4 -19 -9 -22 -8 -5 -22 51 -20 84 1 19 28 -39 29 -62z"/>
</g>
</svg>
